<svg width="186" height="26" viewBox="0 0 186 26" fill="none" xmlns="http://www.w3.org/2000/svg">
<path d="M5.11636 17.1594V17.0688L14.0646 4.51284V1.66802H0.719806V5.00423H9.12498V5.09475L0.357742 17.5732V20.4827H14.0905V17.1594H5.11636ZM25.3923 7.55158V13.8231C25.3923 15.0258 25.1078 15.9568 24.5647 16.6034C24.0086 17.2628 23.3233 17.5861 22.5215 17.5861C21.6939 17.5861 21.0991 17.3534 20.737 16.8879C20.375 16.4223 20.2069 15.5947 20.2069 14.4309V7.55158H16.7413V15.3361C16.7413 16.3059 16.8448 17.1335 17.0776 17.8319C17.3104 18.5301 17.6336 19.0861 18.0733 19.4999C18.5129 19.9137 19.0043 20.224 19.5732 20.418C20.1293 20.612 20.7759 20.7025 21.5 20.7025C22.2371 20.7025 22.9353 20.5602 23.5949 20.25C24.2543 19.9396 24.8362 19.4999 25.3405 18.9051H25.3923V20.4827H28.8577V7.55158H25.3923ZM39.6681 7.33177C38.8922 7.33177 38.181 7.52576 37.5086 7.8878C36.8362 8.24995 36.2543 8.78005 35.7629 9.45249H35.7241V7.55158H32.2586V20.4827H35.7241V14.4827C35.7241 13.4999 36.0086 12.6853 36.5905 12.0517C37.1725 11.431 37.987 11.1077 39.0215 11.1077C39.2802 11.1077 39.5905 11.1206 39.9397 11.1465V7.34479C39.8879 7.34479 39.7974 7.33177 39.6681 7.33177ZM44.0776 5.72835C44.6595 5.72835 45.1637 5.52146 45.5905 5.10766C46.0043 4.69388 46.2242 4.2025 46.2242 3.60767C46.2242 3.03871 46.0043 2.5344 45.5905 2.12061C45.1637 1.70681 44.6595 1.49992 44.0776 1.49992C43.4827 1.49992 42.9656 1.70681 42.5518 2.12061C42.138 2.5344 41.931 3.03871 41.931 3.60767C41.931 3.9956 42.0216 4.35767 42.2155 4.68095C42.3965 5.00423 42.6552 5.26281 42.9914 5.44389C43.3276 5.63787 43.6896 5.72835 44.0776 5.72835ZM42.3448 20.4827H45.8104V7.55158H42.3448V20.4827ZM63.875 20.4827H67.625V1.66802H63.875V20.4827ZM79.2241 7.33177C78.4224 7.33177 77.6595 7.49994 76.9353 7.82314C76.2112 8.14645 75.5905 8.612 75.0732 9.21978H75.0344V7.55158H71.5689V20.4827H75.0344V13.9784C75.0344 12.8533 75.2931 11.987 75.8233 11.3663C76.3535 10.7585 77.0646 10.4481 77.9698 10.4481C78.8103 10.4481 79.431 10.6939 79.8448 11.1723C80.2457 11.6637 80.4526 12.4913 80.4526 13.6809V20.4956H83.9181V12.8146C83.9181 11.8448 83.8018 11.0043 83.5818 10.2801C83.3491 9.5689 83.0258 8.99997 82.5991 8.57315C82.1724 8.15936 81.681 7.84907 81.125 7.64218C80.569 7.43528 79.9354 7.33177 79.2241 7.33177ZM91.2629 20.7025C92.0517 20.7025 92.6983 20.6378 93.2026 20.4956C93.6939 20.3663 94.1982 20.1594 94.6897 19.8878L93.7974 17.1206C93.2026 17.431 92.6595 17.5732 92.1681 17.5732C91.7543 17.5732 91.4698 17.4439 91.2888 17.1723C91.1078 16.9137 91.0301 16.487 91.0301 15.918V10.4223H94.5473V7.55158H91.0301V2.94819L87.5646 3.32319V7.55158H86.0388V10.4223H87.5646V16.3965C87.5646 17.8188 87.8879 18.8922 88.5473 19.6162C89.2069 20.3404 90.112 20.7025 91.2629 20.7025ZM108.526 13.9008C108.526 12.6464 108.254 11.5215 107.737 10.5258C107.207 9.53006 106.457 8.75423 105.5 8.18529C104.53 7.61624 103.418 7.33177 102.177 7.33177C101.272 7.33177 100.418 7.49994 99.6293 7.82314C98.8276 8.15936 98.1552 8.612 97.5863 9.19384C97.0172 9.7758 96.5776 10.487 96.2543 11.3146C95.9181 12.1421 95.7629 13.0473 95.7629 14.0042C95.7629 15.3232 96.0474 16.4999 96.6293 17.5215C97.2112 18.5559 98.0129 19.3448 99.0215 19.8878C100.03 20.4309 101.155 20.7025 102.422 20.7025C103.664 20.7025 104.75 20.4827 105.707 20.0431C106.651 19.6033 107.414 19.0086 108.009 18.2586L105.759 16.1637C104.944 17.1465 103.909 17.6379 102.668 17.625C101.84 17.625 101.129 17.3921 100.547 16.9525C99.9655 16.5128 99.5775 15.918 99.3706 15.1422H108.435C108.487 14.9353 108.526 14.5215 108.526 13.9008ZM102.293 10.3836C103.017 10.3836 103.625 10.5905 104.103 10.9913C104.569 11.3921 104.905 11.9482 105.086 12.6464H99.3837C99.5775 11.9223 99.9267 11.3534 100.444 10.9654C100.961 10.5775 101.569 10.3836 102.293 10.3836ZM118.702 7.33177C117.926 7.33177 117.216 7.52576 116.543 7.8878C115.871 8.24995 115.289 8.78005 114.797 9.45249H114.758V7.55158H111.294V20.4827H114.758V14.4827C114.758 13.4999 115.043 12.6853 115.625 12.0517C116.207 11.431 117.021 11.1077 118.057 11.1077C118.315 11.1077 118.625 11.1206 118.975 11.1465V7.34479C118.923 7.34479 118.832 7.33177 118.702 7.33177ZM128.879 7.33177C128.078 7.33177 127.314 7.49994 126.591 7.82314C125.867 8.14645 125.246 8.612 124.728 9.21978H124.689V7.55158H121.225V20.4827H124.689V13.9784C124.689 12.8533 124.949 11.987 125.478 11.3663C126.009 10.7585 126.72 10.4481 127.625 10.4481C128.465 10.4481 129.087 10.6939 129.5 11.1723C129.901 11.6637 130.107 12.4913 130.107 13.6809V20.4956H133.573V12.8146C133.573 11.8448 133.457 11.0043 133.237 10.2801C133.004 9.5689 132.681 8.99997 132.255 8.57315C131.828 8.15936 131.337 7.84907 130.78 7.64218C130.224 7.43528 129.591 7.33177 128.879 7.33177ZM141.073 20.7025C142.702 20.7025 143.943 20.3404 144.798 19.5904C145.65 18.8533 146.091 17.8835 146.091 16.681C146.091 16.3706 146.064 16.0732 146.012 15.8145C145.845 14.9611 145.34 14.2629 144.513 13.7456C144.022 13.4353 143.065 13.0215 141.643 12.4913C140.956 12.2326 140.465 11.9999 140.155 11.793C139.845 11.5861 139.703 11.3534 139.703 11.0948C139.703 10.7844 139.832 10.5516 140.09 10.3836C140.35 10.2154 140.633 10.1249 140.97 10.1249C141.461 10.1249 141.978 10.2413 142.521 10.4741C143.065 10.7068 143.569 11.043 144.06 11.4956L145.741 8.96113C145.004 8.39219 144.255 7.9784 143.504 7.71975C142.742 7.4611 141.914 7.33177 141.008 7.33177C140.129 7.33177 139.328 7.49994 138.629 7.81023C137.931 8.13354 137.375 8.58617 136.961 9.18093C136.547 9.7758 136.354 10.4481 136.354 11.2112C136.354 11.625 136.393 11.9999 136.495 12.3361C136.587 12.6853 136.728 12.9956 136.909 13.2542C137.091 13.5258 137.297 13.7715 137.53 13.9784C137.763 14.1982 138.034 14.3922 138.358 14.5732C138.668 14.7542 138.978 14.8965 139.289 15.0258C139.599 15.1551 139.948 15.2844 140.336 15.4137C140.944 15.6207 141.397 15.7758 141.707 15.9051C142.017 16.0345 142.25 16.1767 142.431 16.3318C142.599 16.487 142.69 16.655 142.69 16.849C142.69 17.1723 142.548 17.431 142.263 17.625C141.978 17.8319 141.591 17.9223 141.099 17.9223C139.78 17.9223 138.591 17.4181 137.517 16.4094L135.836 18.8017C137.272 20.0689 139.018 20.7025 141.073 20.7025ZM156.487 7.33177C155.647 7.33177 154.871 7.48703 154.147 7.78441C153.422 8.0947 152.802 8.53442 152.284 9.11627H152.233V0.982666H148.768V20.4827H152.233V13.9266C152.233 12.7887 152.492 11.9353 153.035 11.3404C153.564 10.7456 154.301 10.4481 155.258 10.4481C156.112 10.4481 156.746 10.6939 157.159 11.1594C157.573 11.6379 157.781 12.4525 157.781 13.5904V20.4956H161.259V12.7111C161.259 11.7542 161.142 10.9137 160.909 10.2154C160.677 9.51715 160.341 8.94822 159.914 8.53442C159.474 8.12063 158.982 7.82314 158.414 7.62926C157.845 7.43528 157.211 7.33177 156.487 7.33177ZM166.457 5.72835C167.039 5.72835 167.543 5.52146 167.97 5.10766C168.384 4.69388 168.603 4.2025 168.603 3.60767C168.603 3.03871 168.384 2.5344 167.97 2.12061C167.543 1.70681 167.039 1.49992 166.457 1.49992C165.862 1.49992 165.345 1.70681 164.931 2.12061C164.517 2.5344 164.31 3.03871 164.31 3.60767C164.31 3.9956 164.401 4.35767 164.594 4.68095C164.775 5.00423 165.035 5.26281 165.37 5.44389C165.707 5.63787 166.069 5.72835 166.457 5.72835ZM164.725 20.4827H168.189V7.55158H164.725V20.4827ZM179.298 7.33177C177.643 7.33177 176.336 7.90082 175.38 9.0387H175.328V7.55158H171.862V25.7197H175.328V19.0344H175.38C176.298 20.1465 177.564 20.7025 179.194 20.7025C180.074 20.7025 180.901 20.5473 181.664 20.224C182.426 19.9137 183.086 19.4611 183.629 18.8922C184.172 18.3232 184.612 17.6119 184.922 16.7844C185.232 15.9568 185.388 15.0387 185.388 14.056C185.388 13.2801 185.284 12.5559 185.091 11.8577C184.884 11.1594 184.599 10.5387 184.237 9.99561C183.875 9.45249 183.436 8.97404 182.944 8.57315C182.439 8.17238 181.871 7.86198 181.25 7.65509C180.63 7.44819 179.97 7.33177 179.298 7.33177ZM178.561 17.599C177.926 17.599 177.358 17.4568 176.841 17.1723C176.323 16.8879 175.922 16.4612 175.625 15.918C175.328 15.3749 175.185 14.7671 175.185 14.0689C175.185 13.5646 175.263 13.0861 175.431 12.6335C175.599 12.1939 175.832 11.8059 176.129 11.4827C176.413 11.1723 176.775 10.9137 177.189 10.7327C177.603 10.5516 178.069 10.4481 178.561 10.4481C179.504 10.4481 180.293 10.7844 180.927 11.4439C181.548 12.1163 181.871 12.9826 181.871 14.0689C181.871 15.1163 181.56 15.9698 180.94 16.6163C180.319 17.2758 179.53 17.599 178.561 17.599Z" fill="black"/>
</svg>
